<svg xmlns="http://www.w3.org/2000/svg" width="13.445" height="20.827" viewBox="0 0 13.445 20.827">
  <path id="фейсбук" d="M867.941,1001h-3.225c-3.623,0-5.966,2.013-5.966,5.122v2.368H855.5a.51.51,0,0,0-.348.116.429.429,0,0,0-.156.308v3.425a.474.474,0,0,0,.5.424h3.242v8.639a.474.474,0,0,0,.5.424h4.237a.474.474,0,0,0,.5-.424v-8.639h3.791a.474.474,0,0,0,.5-.424v-3.425a.386.386,0,0,0-.149-.3.575.575,0,0,0-.359-.123h-3.787v-2.006c0-.964.274-1.45,1.771-1.45h2.178a.474.474,0,0,0,.5-.424v-3.178a.479.479,0,0,0-.5-.432Z" transform="translate(-855 -1001)" fill="#27428b" fill-rule="evenodd"/>
</svg>
