<svg xmlns="http://www.w3.org/2000/svg" width="20.804" height="18.114" viewBox="0 0 20.804 18.114">
  <g id="XMLID_496_" transform="translate(0 -19.4)">
    <path id="XMLID_497_" d="M.368,28.086l4.794,1.789,1.855,5.967a.564.564,0,0,0,.9.27l2.672-2.178a.8.8,0,0,1,.972-.027l4.819,3.5a.565.565,0,0,0,.885-.342l3.531-16.982a.565.565,0,0,0-.757-.642L.362,27.029A.565.565,0,0,0,.368,28.086Zm6.35.837,9.369-5.77a.163.163,0,0,1,.2.258L8.551,30.6a1.6,1.6,0,0,0-.5.959l-.263,1.952a.242.242,0,0,1-.473.034L6.306,29.984A.943.943,0,0,1,6.718,28.923Z" transform="translate(0)" fill="#158ec1"/>
  </g>
</svg>
